<svg width="23" height="22" viewBox="0 0 23 22" fill="none" xmlns="http://www.w3.org/2000/svg">
<path d="M2.33337 7.19588C2.33337 5.50005 3.24087 5.36255 4.36837 5.36255H18.6317C19.7592 5.36255 20.6667 5.50005 20.6667 7.19588C20.6667 9.16672 19.7592 9.02922 18.6317 9.02922H4.36837C3.24087 9.02922 2.33337 9.16672 2.33337 7.19588Z" stroke="#876A48" stroke-width="1.5"/>
<g opacity="0.4">
<path d="M8.57529 1.83325L5.25696 5.16075" stroke="#876A48" stroke-width="1.5" stroke-miterlimit="10" stroke-linecap="round" stroke-linejoin="round"/>
<path d="M14.4237 1.83325L17.742 5.16075" stroke="#876A48" stroke-width="1.5" stroke-miterlimit="10" stroke-linecap="round" stroke-linejoin="round"/>
<path d="M9.44641 12.8333V16.0874" stroke="#876A48" stroke-width="1.5" stroke-linecap="round"/>
<path d="M13.6627 12.8333V16.0874" stroke="#876A48" stroke-width="1.5" stroke-linecap="round"/>
</g>
<path d="M3.70837 9.16675L5.00087 17.0867C5.29421 18.8651 6.00004 20.1667 8.62171 20.1667H14.1492C17 20.1667 17.4217 18.9201 17.7517 17.1967L19.2917 9.16675" stroke="#876A48" stroke-width="1.5" stroke-linecap="round"/>
</svg>
