<svg width="22" height="22" viewBox="0 0 22 22" fill="none" xmlns="http://www.w3.org/2000/svg">
<path opacity="0.4" d="M19.0942 7.34244L13.09 2.5391C11.9167 1.6041 10.0833 1.59494 8.91917 2.52994L2.91501 7.34244C2.05334 8.02994 1.53084 9.40493 1.71417 10.4866L2.86917 17.3983C3.13501 18.9474 4.57417 20.1666 6.14167 20.1666H15.8583C17.4075 20.1666 18.8742 18.9199 19.14 17.3891L20.295 10.4774C20.46 9.40494 19.9375 8.02994 19.0942 7.34244Z" fill="#8696BB"/>
<path d="M11 17.1875C10.6242 17.1875 10.3125 16.8758 10.3125 16.5V13.75C10.3125 13.3742 10.6242 13.0625 11 13.0625C11.3758 13.0625 11.6875 13.3742 11.6875 13.75V16.5C11.6875 16.8758 11.3758 17.1875 11 17.1875Z" fill="#8696BB"/>
</svg>
