<svg width="23" height="22" viewBox="0 0 23 22" fill="none" xmlns="http://www.w3.org/2000/svg">
<path d="M4.16663 7.33325C4.16663 4.74092 4.16663 3.44384 4.97238 2.639C5.77721 1.83325 7.07429 1.83325 9.66663 1.83325H13.3333C15.9256 1.83325 17.2227 1.83325 18.0275 2.639C18.8333 3.44384 18.8333 4.74092 18.8333 7.33325V14.6666C18.8333 17.2589 18.8333 18.556 18.0275 19.3608C17.2227 20.1666 15.9256 20.1666 13.3333 20.1666H9.66663C7.07429 20.1666 5.77721 20.1666 4.97238 19.3608C4.16663 18.556 4.16663 17.2589 4.16663 14.6666V7.33325Z" stroke="#8696BB" stroke-width="1.5"/>
<path opacity="0.5" d="M18.7398 14.6665H7.73979C6.88729 14.6665 6.46104 14.6665 6.11088 14.76C5.64458 14.885 5.21941 15.1306 4.87812 15.4721C4.53683 15.8135 4.29144 16.2388 4.16663 16.7052" stroke="#8696BB" stroke-width="1.5"/>
<path opacity="0.5" d="M7.83325 6.4165H15.1666M7.83325 9.62484H12.4166" stroke="#8696BB" stroke-width="1.5" stroke-linecap="round"/>
</svg>
