<svg width="23" height="22" viewBox="0 0 23 22" fill="none" xmlns="http://www.w3.org/2000/svg">
<path d="M4.16669 7.33325C4.16669 4.74092 4.16669 3.44384 4.97244 2.639C5.77727 1.83325 7.07435 1.83325 9.66669 1.83325H13.3334C15.9257 1.83325 17.2228 1.83325 18.0276 2.639C18.8334 3.44384 18.8334 4.74092 18.8334 7.33325V14.6666C18.8334 17.2589 18.8334 18.556 18.0276 19.3608C17.2228 20.1666 15.9257 20.1666 13.3334 20.1666H9.66669C7.07435 20.1666 5.77727 20.1666 4.97244 19.3608C4.16669 18.556 4.16669 17.2589 4.16669 14.6666V7.33325Z" stroke="#876A48" stroke-width="1.5"/>
<path opacity="0.5" d="M18.7399 14.6665H7.73985C6.88735 14.6665 6.4611 14.6665 6.11094 14.76C5.64464 14.885 5.21947 15.1306 4.87818 15.4721C4.53689 15.8135 4.2915 16.2388 4.16669 16.7052" stroke="#876A48" stroke-width="1.5"/>
<path opacity="0.5" d="M7.83337 6.4165H15.1667M7.83337 9.62484H12.4167" stroke="#876A48" stroke-width="1.5" stroke-linecap="round"/>
</svg>
