<svg width="23" height="22" viewBox="0 0 23 22" fill="none" xmlns="http://www.w3.org/2000/svg">
<path d="M19.8233 7.86519V14.1352C19.8233 15.1618 19.2733 16.1152 18.3842 16.6377L12.9392 19.7819C12.05 20.2952 10.95 20.2952 10.0517 19.7819L4.60668 16.6377C3.71751 16.1244 3.16751 15.171 3.16751 14.1352V7.86519C3.16751 6.83853 3.71751 5.88516 4.60668 5.36266L10.0517 2.2185C10.9408 1.70516 12.0408 1.70516 12.9392 2.2185L18.3842 5.36266C19.2733 5.88516 19.8233 6.82936 19.8233 7.86519Z" stroke="#876A48" stroke-width="1.5" stroke-linecap="round" stroke-linejoin="round"/>
<path opacity="0.4" d="M11.5 10.0832C12.6796 10.0832 13.6358 9.1269 13.6358 7.94732C13.6358 6.76773 12.6796 5.81152 11.5 5.81152C10.3204 5.81152 9.36417 6.76773 9.36417 7.94732C9.36417 9.1269 10.3204 10.0832 11.5 10.0832Z" stroke="#876A48" stroke-width="1.5" stroke-linecap="round" stroke-linejoin="round"/>
<path opacity="0.4" d="M15.1667 15.2715C15.1667 13.6215 13.5258 12.2832 11.5 12.2832C9.47418 12.2832 7.83334 13.6215 7.83334 15.2715" stroke="#876A48" stroke-width="1.5" stroke-linecap="round" stroke-linejoin="round"/>
</svg>
