<svg width="25" height="24" viewBox="0 0 25 24" fill="none" xmlns="http://www.w3.org/2000/svg">
<path opacity="0.4" d="M11.0775 20.02C16.0682 20.02 20.1139 15.9861 20.1139 11.01C20.1139 6.03391 16.0682 2 11.0775 2C6.0868 2 2.04105 6.03391 2.04105 11.01C2.04105 15.9861 6.0868 20.02 11.0775 20.02Z" fill="#876A48"/>
<path d="M22.0897 18.95C21.7588 18.34 21.0567 18 20.114 18C19.4019 18 18.7901 18.29 18.429 18.79C18.068 19.29 17.9877 19.96 18.2084 20.63C18.6396 21.93 19.3918 22.22 19.803 22.27C19.8632 22.28 19.9234 22.28 19.9936 22.28C20.4349 22.28 21.1169 22.09 21.7788 21.1C22.3104 20.33 22.4107 19.56 22.0897 18.95Z" fill="#876A48"/>
</svg>
